<?xml version="1.0" encoding="utf-8"?>
<!-- Generator: Adobe Illustrator 27.3.1, SVG Export Plug-In . SVG Version: 6.00 Build 0)  -->
<svg version="1.1" xmlns="http://www.w3.org/2000/svg" xmlns:xlink="http://www.w3.org/1999/xlink" x="0px" y="0px"
	 viewBox="0 0 65.9 88.3" style="enable-background:new 0 0 65.9 88.3;" xml:space="preserve">
<style type="text/css">
	.st0{fill:none;stroke:#000000;stroke-miterlimit:10;}
	.st1{fill:#868686;}
	.st2{fill:#3F3E3E;}
	.st3{fill:url(#SVGID_1_);}
	.st4{fill:url(#SVGID_00000022536597093607285760000010263692746503322265_);}
	.st5{fill:url(#SVGID_00000067193978635249259630000000232346871507609511_);}
	.st6{fill:#FFFFFF;}
	.st7{fill:url(#SVGID_00000037675311854534585710000003465465834076226954_);}
	.st8{fill:url(#SVGID_00000021090868177169840880000014867253485169913244_);}
	.st9{fill:url(#SVGID_00000085951259526732619810000001425466332467447698_);}
	.st10{fill:url(#SVGID_00000072970260437972497790000007092968065537570741_);}
	.st11{fill:url(#SVGID_00000056429086404434434010000002170703341211867814_);}
	.st12{fill:url(#SVGID_00000047767577296549514930000007839458433351040431_);}
	.st13{fill:url(#SVGID_00000080920143309097292040000017827148649182096790_);}
	.st14{fill:url(#SVGID_00000085937320422719816070000016342955389917089672_);}
	.st15{fill:url(#SVGID_00000137854495100090718410000016183375116705333411_);}
	.st16{fill:url(#SVGID_00000011718841362411759310000000910010155535355796_);}
</style>
<g id="Layer_1">
</g>
<g id="Layer_2">
	<circle class="st0" cx="-1288.3" cy="-264.4" r="247.3"/>
	<circle class="st0" cx="-1281.4" cy="-257.5" r="247.3"/>
	<ellipse class="st0" cx="-834.1" cy="-261" rx="241.1" ry="243.9"/>
	<polygon class="st0" points="-1063.5,260.8 -1063.5,260.8 -1221.5,-26.2 -1208.6,-21.1 	"/>
	<polygon class="st0" points="-1062.6,263.3 -1142,107.9 -1221.5,-47.6 -1062.6,-47.6 -890.6,-47.6 	"/>
	<path class="st0" d="M-1034.1-257.5c0,34.5-7,67.3-19.8,97c-13.7-30.6-21.3-64.6-21.3-100.5c0-34.5,7.1-67.3,19.8-97
		C-1041.7-327.3-1034.1-293.3-1034.1-257.5z"/>
	<path class="st0" d="M-1034.1-257.5c0,34.5-7,67.3-19.8,97c-13.7-30.6-21.3-64.6-21.3-100.5c0-34.5,7.1-67.3,19.8-97
		C-1041.7-327.3-1034.1-293.3-1034.1-257.5z"/>
	<path class="st1" d="M32.6,1.1h2c-4.1,9.5-11,17.5-19.6,22.9c-3.6,2.3-7.5,4.1-11.7,5.3c0,0-0.1,0-0.1,0l-2.6-1
		c0.6-0.2,1.3-0.4,1.9-0.6c3-1,6-2.3,8.7-3.8C20.5,18.9,28.1,10.9,32.6,1.1z"/>
	<polygon class="st2" points="31.6,84.8 1.4,30 0.5,28.4 3.2,29.4 21.8,65.6 	"/>
	<linearGradient id="SVGID_1_" gradientUnits="userSpaceOnUse" x1="3.2655" y1="44.1733" x2="65.4141" y2="44.1733">
		<stop  offset="0" style="stop-color:#946723"/>
		<stop  offset="0.1237" style="stop-color:#EBDF7D"/>
		<stop  offset="0.141" style="stop-color:#DDCC6C"/>
		<stop  offset="0.1676" style="stop-color:#CDB65A"/>
		<stop  offset="0.1928" style="stop-color:#C3A94F"/>
		<stop  offset="0.2151" style="stop-color:#C0A44C"/>
		<stop  offset="0.3441" style="stop-color:#F9E37B"/>
		<stop  offset="0.3846" style="stop-color:#F6DE76"/>
		<stop  offset="0.4324" style="stop-color:#EED168"/>
		<stop  offset="0.4837" style="stop-color:#DFBB51"/>
		<stop  offset="0.5269" style="stop-color:#D0A43C"/>
		<stop  offset="0.6882" style="stop-color:#DCC461"/>
		<stop  offset="0.8871" style="stop-color:#9E7424"/>
		<stop  offset="1" style="stop-color:#9A6E24"/>
	</linearGradient>
	<path class="st3" d="M65.4,28.3L32.8,87.2l-1.2-2.4l0,0l-9.6-18.8l-0.2-0.3l-5.1-10L3.3,29.4c4.1-1.3,8.1-3.1,11.7-5.3
		c8.7-5.4,15.6-13.4,19.6-22.9c4.4,9.7,11.7,17.8,20.9,22.9c0.2,0.1,0.5,0.3,0.7,0.4c0.2,0.1,0.3,0.2,0.5,0.3
		c0.5,0.3,1.1,0.6,1.7,0.8c0.1,0.1,0.3,0.1,0.4,0.2c0,0,0.1,0,0.1,0c0.1,0.1,0.3,0.1,0.4,0.2c1.2,0.5,2.4,1,3.6,1.5
		c0.2,0.1,0.3,0.1,0.5,0.2c0,0,0,0,0,0c0.3,0.1,0.5,0.2,0.8,0.3c0.3,0.1,0.5,0.2,0.8,0.3C65.1,28.2,65.3,28.2,65.4,28.3z"/>
	<g>
		<path d="M64.1,29L32.9,85.4L17.4,55.1L4.6,30c4-1.2,7.7-3,11.2-5.1C24.1,19.7,30.7,12.1,34.6,3c4.2,9.3,11.2,17,20,21.9
			C57.5,26.6,60.7,28,64.1,29z"/>
	</g>
	
		<linearGradient id="SVGID_00000070086918557921602110000009238614302315229824_" gradientUnits="userSpaceOnUse" x1="8.096" y1="44.1733" x2="60.5836" y2="44.1733">
		<stop  offset="0" style="stop-color:#C0A44C"/>
		<stop  offset="0.4022" style="stop-color:#946723"/>
		<stop  offset="0.6625" style="stop-color:#F9E37B"/>
		<stop  offset="0.7183" style="stop-color:#F5DD76"/>
		<stop  offset="0.7842" style="stop-color:#E7CC68"/>
		<stop  offset="0.8553" style="stop-color:#D2B253"/>
		<stop  offset="0.9294" style="stop-color:#B6913A"/>
		<stop  offset="1" style="stop-color:#9A6E24"/>
	</linearGradient>
	<path style="fill:url(#SVGID_00000070086918557921602110000009238614302315229824_);" d="M60.6,30.7L33.1,80.5L19.4,53.9L8.1,31.7
		c3.5-1.1,6.8-2.6,9.9-4.5c7.3-4.6,13.2-11.3,16.6-19.4c3.7,8.2,9.9,15,17.6,19.4C54.8,28.7,57.6,29.9,60.6,30.7z"/>
	
		<linearGradient id="SVGID_00000144317343455562164420000008540202474889503921_" gradientUnits="userSpaceOnUse" x1="10.8393" y1="44.1733" x2="57.8403" y2="44.1733">
		<stop  offset="0.1237" style="stop-color:#EBDF7D"/>
		<stop  offset="0.141" style="stop-color:#DDCC6C"/>
		<stop  offset="0.1676" style="stop-color:#CDB65A"/>
		<stop  offset="0.1928" style="stop-color:#C3A94F"/>
		<stop  offset="0.2151" style="stop-color:#C0A44C"/>
		<stop  offset="0.3441" style="stop-color:#F9E37B"/>
		<stop  offset="0.4646" style="stop-color:#F5DE77"/>
		<stop  offset="0.6066" style="stop-color:#E7CF6A"/>
		<stop  offset="0.6882" style="stop-color:#DCC461"/>
		<stop  offset="0.8871" style="stop-color:#9E7424"/>
	</linearGradient>
	<path style="fill:url(#SVGID_00000144317343455562164420000008540202474889503921_);" d="M57.8,32.1L33.2,76.7L21,52.8L10.8,33
		c3.1-1,6.1-2.3,8.8-4c6.6-4.1,11.8-10.1,14.9-17.3C37.8,19,43.4,25.1,50.3,29C52.7,30.3,55.2,31.4,57.8,32.1z"/>
	<g>
		<path class="st6" d="M56.7,32.7L33.2,75.1L21.6,52.4L12,33.6c3-0.9,5.8-2.2,8.4-3.8c6.2-3.9,11.2-9.6,14.1-16.5
			c3.1,7,8.4,12.8,15,16.5C51.8,31,54.2,32,56.7,32.7z"/>
	</g>
	<g>
		<g>
			<path class="st1" d="M29.3,47.4l-1.5-2.2c0,0.4,0,0.6,0,0.8c0.1,0.6,0.2,0.9,0.3,0.9l0.2,0.2H26l0.2-0.2c0.1-0.1,0.1-0.2,0.2-0.5
				c0-0.2,0.1-0.4,0.1-0.6v-2.2c0-0.2,0-0.4-0.1-0.7c-0.1-0.4-0.2-0.5-0.2-0.6L26,42.2h2.2l1.4,1.7l0.9-1.7h2.8L33,42.3
				c-0.1,0.1-0.1,0.2-0.2,0.6c0,0.2-0.1,0.4-0.1,0.6v2.1c0,0.2,0,0.4,0.1,0.7c0.1,0.4,0.2,0.5,0.2,0.6l0.2,0.2h-3l0.2-0.2
				c0.1-0.1,0.1-0.2,0.2-0.6c0-0.2,0.1-0.5,0.1-0.7v-1.1L29.3,47.4z M27.6,44.6l1.7,2.4l1.6-3.2v1.9c0,0.2,0,0.4-0.1,0.7
				c0,0.2-0.1,0.4-0.2,0.5h2.1c-0.1-0.1-0.1-0.3-0.1-0.5c0-0.2-0.1-0.5-0.1-0.7v-2.1c0-0.2,0-0.4,0.1-0.7c0-0.2,0.1-0.4,0.2-0.5
				h-2.2l-0.9,1.9l-1.5-1.9h-1.7c0.1,0.1,0.1,0.3,0.1,0.5c0.1,0.2,0.1,0.5,0.1,0.7v2.2c0,0.2,0,0.5-0.1,0.7c0,0.2-0.1,0.4-0.1,0.5
				h1.4c-0.1-0.2-0.2-0.5-0.2-0.9c0-0.2,0-0.5,0-1.1V44.6z"/>
		</g>
		<g>
			<path class="st1" d="M36.6,47.2h-3.1l0.2-0.2c0.1-0.1,0.1-0.2,0.2-0.6c0-0.2,0.1-0.5,0.1-0.7v-2.1c0-0.2,0-0.4-0.1-0.7
				c-0.1-0.4-0.2-0.5-0.2-0.6l-0.2-0.2h3.1l-0.2,0.2c-0.1,0.1-0.3,0.4-0.3,1.2v2.1c0,0.8,0.2,1.1,0.3,1.2L36.6,47.2z M34,47h2.2
				c-0.1-0.2-0.2-0.6-0.2-1.2v-2.1c0-0.6,0.1-1,0.2-1.2H34c0.1,0.1,0.1,0.3,0.1,0.5c0.1,0.2,0.1,0.5,0.1,0.7v2.1
				c0,0.2,0,0.5-0.1,0.7C34.1,46.7,34,46.9,34,47z"/>
		</g>
		<g>
			<path class="st1" d="M44.2,47.2H37V47h0c0.1,0,0.2-0.1,0.5-0.3c0.1-0.1,0.2-0.3,0.4-0.6l0.8-1.6c-0.6-0.8-0.8-1.1-0.8-1.1
				c-0.6-0.7-0.9-0.9-1-0.9l0-0.2h6.8l-0.5,0.2c-0.3,0.1-0.7,0.5-1,1.1l-0.6,1.2l0.8,1.1c0.1,0.1,0.3,0.3,0.5,0.6
				c0.2,0.3,0.5,0.4,0.7,0.5L44.2,47.2z M39.5,45.7l-0.3,0.6c-0.1,0.2-0.2,0.4-0.2,0.6c0,0.2,0.1,0.2,0.1,0.2l0,0.2l0.8-0.2
				c0.2,0,0.2-0.1,0.2-0.3C40.1,46.7,40,46.4,39.5,45.7z M40.2,47H43c-0.1-0.1-0.3-0.2-0.4-0.4c-0.3-0.3-0.5-0.5-0.5-0.7l-0.8-1.2
				l0.7-1.3c0.2-0.5,0.5-0.8,0.8-1h-1.5c0,0,0,0.1,0,0.2c0,0.2-0.2,0.6-0.5,1.2L40.7,44l-0.1-0.1c-0.6-0.9-0.7-1.2-0.7-1.3
				c0,0,0-0.1,0-0.1h-2.6c0.2,0.2,0.5,0.4,0.8,0.8c0.1,0.1,0.4,0.5,0.9,1.2l0,0L38,46.2c-0.1,0.3-0.3,0.5-0.4,0.6
				c-0.1,0.1-0.1,0.2-0.2,0.2h1.4c0,0,0-0.1,0-0.2c0-0.2,0.1-0.4,0.2-0.7l0.5-0.9l0.1,0.1c0.6,0.9,0.7,1.2,0.7,1.3
				C40.3,46.8,40.3,46.9,40.2,47z M40.4,42.3l-0.3,0.1c0,0-0.1,0-0.1,0.1c0,0.1,0.1,0.3,0.6,1.1c0.3-0.6,0.4-0.9,0.4-1
				c0-0.1,0-0.1-0.1-0.2L40.4,42.3z"/>
		</g>
		<g>
			<g>
				<path class="st1" d="M29.9,57.4c-0.2,0-0.3,0-0.5,0c-0.2,0-0.4,0-0.5-0.1c-0.2,0-0.4-0.1-0.5-0.1c-0.2,0-0.3-0.1-0.5-0.2
					l-0.5-0.2l0.2-0.5c0.1-0.2,0.2-0.5,0.4-0.7l0.3-0.4l0.5,0.2c0.1,0.1,0.3,0.1,0.5,0.2c0.4,0.1,1,0.1,1.4,0c0.2,0,0.3-0.1,0.5-0.2
					c0.1-0.1,0.2-0.2,0.2-0.3c0.1-0.1,0.1-0.3,0.1-0.5c0-0.3-0.1-0.3-0.2-0.4C31,54,30.7,54,30.3,54c-0.1,0-0.3,0-0.4,0
					c-0.1,0-0.3,0-0.4,0.1l-0.4,0.1l-0.5-0.8l0-0.1l1.5-1.9h-2.2l-0.1-0.4c0-0.1,0-0.2,0-0.3v-0.3c0-0.1,0-0.2,0-0.3l0.1-0.4h4.9
					l0.4,0.7l-1.6,2.1c0.1,0,0.2,0.1,0.3,0.1c0.3,0.1,0.6,0.3,0.8,0.6h0c0.2,0.2,0.4,0.5,0.5,0.8c0.1,0.3,0.1,0.5,0.1,0.8
					c0,0.5-0.1,0.9-0.3,1.3c-0.2,0.4-0.5,0.7-0.8,0.9c-0.3,0.2-0.7,0.4-1.1,0.5C30.7,57.4,30.3,57.4,29.9,57.4z M27.6,56.7l0.3,0.2
					c0.1,0.1,0.3,0.1,0.5,0.2c0.2,0,0.3,0.1,0.5,0.1c0.2,0,0.3,0.1,0.5,0.1c0.6,0,1.2,0,1.7-0.1c0.4-0.1,0.7-0.2,1-0.5
					c0.3-0.2,0.6-0.5,0.8-0.8c0.2-0.3,0.3-0.8,0.3-1.2c0-0.2,0-0.5-0.1-0.7c-0.1-0.3-0.2-0.5-0.4-0.7l0,0c-0.2-0.2-0.5-0.4-0.8-0.5
					c-0.1,0-0.2-0.1-0.4-0.1l-0.2,0l1.7-2.2l-0.3-0.5h-4.7L28,50c0,0.1,0,0.2,0,0.3v0.3c0,0.1,0,0.2,0,0.2l0.1,0.3h2.4l-1.7,2.2
					l0.4,0.6l0.3-0.1c0.1,0,0.3,0,0.4-0.1c0.1,0,0.3,0,0.4,0c0.4,0,0.8,0.1,1,0.2c0.1,0.1,0.3,0.2,0.3,0.6c0,0.2,0,0.4-0.1,0.6
					c-0.1,0.1-0.2,0.3-0.3,0.3c-0.1,0.1-0.3,0.2-0.5,0.2c-0.5,0.1-1.1,0.1-1.5,0c-0.2,0-0.4-0.1-0.6-0.2l-0.3-0.1L28,55.7
					c-0.2,0.2-0.3,0.4-0.3,0.7L27.6,56.7z"/>
			</g>
			<g>
				<path class="st1" d="M40.1,57.5h-2.4V56h-3.5l-0.2-1.5l0,0l4-4.9l2.2,0.2v4.2h1.3v2h-1.3V57.5z M37.9,57.3h2v-1.6h1.3v-1.6h-1.3
					v-4.2L38,49.7l-3.9,4.8l0.2,1.2h3.6V57.3z M37.9,54.1h-1.2l1.2-1.5V54.1z M37,53.9h0.6v-0.8L37,53.9z"/>
			</g>
		</g>
		<g>
			<path class="st1" d="M31,40.2h-6.7l0.4-0.2c0.2-0.1,0.3-0.4,0.3-0.9c0-0.2-0.1-0.6-0.2-0.9h-3.1c-0.1,0.4-0.2,0.7-0.2,0.9
				c0,0.5,0.1,0.8,0.3,0.9l0.4,0.2h-5l0.5-0.2c0.7-0.3,1.3-1.2,1.8-2.6l1.5-4.2c0.1-0.4,0.2-0.9,0.2-1.3c0-0.3-0.1-0.6-0.2-0.9
				L21,30.8h6.3L27.3,31c-0.1,0.3-0.2,0.6-0.2,0.9c0,0.5,0.1,0.9,0.2,1.3l1.5,4.3c0.5,1.4,1.1,2.2,1.7,2.5L31,40.2z M25.1,40h5
				c-0.6-0.4-1.1-1.2-1.5-2.4l-1.5-4.3c-0.1-0.4-0.2-0.9-0.2-1.4c0-0.3,0-0.6,0.1-0.8h-5.7c0.1,0.2,0.1,0.5,0.1,0.8
				c0,0.5-0.1,1-0.2,1.4l-1.5,4.2c-0.4,1.3-1,2.1-1.5,2.5h3.4c-0.2-0.2-0.2-0.5-0.2-0.9c0-0.3,0.1-0.6,0.2-1l0-0.1h3.4l0,0.1
				c0.1,0.4,0.2,0.8,0.2,1.1C25.3,39.5,25.2,39.8,25.1,40z M24.5,36.4h-2.3l1.2-3.3L24.5,36.4z M22.5,36.2h1.7l-0.9-2.5L22.5,36.2z"
				/>
		</g>
		<g>
			<path class="st1" d="M35.2,40.1H31l0.2-0.2c0.1-0.1,0.1-0.2,0.2-0.5c0-0.2,0.1-0.4,0.1-0.6v-2.1c0-0.2,0-0.4-0.1-0.6
				c-0.1-0.3-0.1-0.5-0.2-0.5L31,35.4h3l-0.1,0.2c-0.2,0.3-0.4,0.7-0.4,1.2v2h0.7c0.3,0,0.6-0.1,0.8-0.2c0.3-0.2,0.4-0.4,0.5-0.7
				l0.2-0.8v0.9c0,0,0,0.1-0.1,0.3c0,0-0.1,0.2-0.2,0.7L35.2,40.1z M31.5,39.9H35l0.3-1.1c0-0.1,0-0.2,0.1-0.3
				c-0.1,0.1-0.1,0.1-0.2,0.2c-0.3,0.2-0.6,0.2-0.9,0.2h-0.9v-2.2c0-0.5,0.1-0.9,0.3-1.2h-2.2c0.1,0.1,0.1,0.3,0.1,0.4
				c0,0.2,0.1,0.4,0.1,0.6v2.1c0,0.2,0,0.4-0.1,0.7C31.6,39.7,31.5,39.8,31.5,39.9z"/>
		</g>
		<g>
			<path class="st1" d="M39.7,40.1h-3l0.2-0.2c0.1-0.1,0.3-0.4,0.3-1.2v-2h-0.3c-0.1,0-0.3,0.1-0.5,0.2c-0.3,0.2-0.5,0.4-0.7,0.7
				l-0.4,0.6l0.7-2.9h4.2l0,0.1l0.7,2.6l-0.3-0.5c-0.2-0.3-0.4-0.5-0.7-0.7c-0.2-0.1-0.4-0.2-0.5-0.2h-0.2v2c0,0.2,0,0.4,0.1,0.6
				c0.1,0.3,0.1,0.5,0.2,0.5L39.7,40.1z M37.2,39.9h2.1c-0.1-0.1-0.1-0.3-0.1-0.5c0-0.2-0.1-0.5-0.1-0.7v-2.2h0.4
				c0.2,0,0.4,0.1,0.6,0.2c0.2,0.1,0.3,0.2,0.5,0.4l-0.4-1.6h-3.9l-0.4,1.5c0.1-0.1,0.3-0.3,0.4-0.3c0.2-0.1,0.4-0.2,0.6-0.2h0.5
				v2.2C37.4,39.3,37.3,39.7,37.2,39.9z"/>
		</g>
		<g>
			<path class="st1" d="M43.5,40.1h-3l0.2-0.2c0.1-0.1,0.1-0.2,0.2-0.5c0-0.2,0.1-0.4,0.1-0.6v-2c0-0.2,0-0.4-0.1-0.6
				c-0.1-0.3-0.1-0.5-0.2-0.5l-0.2-0.2h3l-0.2,0.2C43.2,35.7,43,36,43,36.8v2c0,0.8,0.1,1.1,0.3,1.2L43.5,40.1z M41,39.9H43
				c-0.1-0.2-0.2-0.6-0.2-1.1v-2c0-0.5,0.1-0.9,0.2-1.1H41c0.1,0.1,0.1,0.3,0.1,0.5c0,0.2,0.1,0.5,0.1,0.7v2c0,0.2,0,0.4-0.1,0.7
				C41.1,39.7,41,39.8,41,39.9z"/>
		</g>
		<g>
			<path class="st1" d="M49.5,40.2c-0.4,0-0.7-0.1-1.1-0.2c-0.5-0.2-1.4-0.8-2.6-1.8v0.6c0,0.8,0.2,1.1,0.3,1.2l0.2,0.2h-2.4
				l0.2-0.2c0.2-0.2,0.3-0.6,0.3-1.2v-1.9c0-0.6-0.1-1-0.3-1.2l-0.2-0.2h2.3l0,0c0.9,1.1,1.6,1.8,2.1,2.2v-0.8
				c0-0.6-0.1-1.1-0.3-1.2l-0.2-0.2h2.4L50,35.6c-0.2,0.2-0.3,0.6-0.3,1.2v2.3c0,0.4,0.1,0.8,0.3,0.8l0.5,0.1L50,40.1
				C49.9,40.2,49.7,40.2,49.5,40.2z M45.6,37.7l0.2,0.1c1.3,1.1,2.2,1.7,2.7,1.9c0.3,0.1,0.7,0.2,1,0.2c0.1,0,0.2,0,0.3,0
				c-0.1-0.2-0.2-0.5-0.2-0.9v-2.3c0-0.5,0.1-0.9,0.2-1.2h-1.5c0.2,0.2,0.2,0.6,0.2,1.2V38l-0.1-0.1c-0.5-0.3-1.3-1.1-2.3-2.3h-1.7
				c0.1,0.2,0.2,0.6,0.2,1.2v1.9c0,0.6-0.1,1-0.2,1.2h1.5c-0.1-0.2-0.2-0.7-0.2-1.2V37.7z"/>
		</g>
	</g>
	<g>
		
			<linearGradient id="SVGID_00000144305908341936461970000003939790482110147201_" gradientUnits="userSpaceOnUse" x1="18.2475" y1="24.797" x2="41.0451" y2="63.3111">
			<stop  offset="0" style="stop-color:#C0A44C"/>
			<stop  offset="0.4022" style="stop-color:#A05722"/>
			<stop  offset="0.6625" style="stop-color:#F9E37B"/>
			<stop  offset="0.7095" style="stop-color:#F6DE77"/>
			<stop  offset="0.7649" style="stop-color:#EED16D"/>
			<stop  offset="0.8246" style="stop-color:#E0BC5D"/>
			<stop  offset="0.8874" style="stop-color:#CD9E48"/>
			<stop  offset="0.9519" style="stop-color:#B77A33"/>
			<stop  offset="1" style="stop-color:#A65C25"/>
		</linearGradient>
		<path style="fill:url(#SVGID_00000144305908341936461970000003939790482110147201_);" d="M30.9,47c0.1-0.1,0.2-0.3,0.2-0.6
			c0-0.2,0.1-0.5,0.1-0.7v-1.5l-1.5,3l-1.6-2.3c0,0.6,0,0.9,0,1.1c0,0.5,0.1,0.9,0.3,1h-1.8c0.1-0.1,0.2-0.3,0.2-0.6
			c0-0.2,0.1-0.5,0.1-0.7v-2.2c0-0.2,0-0.4-0.1-0.7c-0.1-0.3-0.1-0.5-0.2-0.6h1.9l1.4,1.8l0.9-1.8h2.5c-0.1,0.1-0.2,0.3-0.2,0.6
			c0,0.2-0.1,0.5-0.1,0.7v2.1c0,0.2,0,0.4,0.1,0.7c0.1,0.3,0.1,0.5,0.2,0.6H30.9z"/>
		
			<linearGradient id="SVGID_00000034789414481789179210000011155199640326899384_" gradientUnits="userSpaceOnUse" x1="22.2519" y1="22.4267" x2="45.0495" y2="60.9408">
			<stop  offset="0" style="stop-color:#C0A44C"/>
			<stop  offset="0.4022" style="stop-color:#A05722"/>
			<stop  offset="0.6625" style="stop-color:#F9E37B"/>
			<stop  offset="0.7095" style="stop-color:#F6DE77"/>
			<stop  offset="0.7649" style="stop-color:#EED16D"/>
			<stop  offset="0.8246" style="stop-color:#E0BC5D"/>
			<stop  offset="0.8874" style="stop-color:#CD9E48"/>
			<stop  offset="0.9519" style="stop-color:#B77A33"/>
			<stop  offset="1" style="stop-color:#A65C25"/>
		</linearGradient>
		<path style="fill:url(#SVGID_00000034789414481789179210000011155199640326899384_);" d="M36.7,42.4c-0.2,0.2-0.3,0.6-0.3,1.3v2.1
			c0,0.7,0.1,1.1,0.3,1.3h-2.6c0.1-0.1,0.2-0.3,0.2-0.6c0-0.2,0.1-0.5,0.1-0.7v-2.1c0-0.2,0-0.4-0.1-0.7c-0.1-0.3-0.1-0.5-0.2-0.6
			H36.7z"/>
		
			<linearGradient id="SVGID_00000003804834586680347200000014607465727720677297_" gradientUnits="userSpaceOnUse" x1="25.9337" y1="20.2473" x2="48.7313" y2="58.7614">
			<stop  offset="0" style="stop-color:#C0A44C"/>
			<stop  offset="0.4022" style="stop-color:#A05722"/>
			<stop  offset="0.6625" style="stop-color:#F9E37B"/>
			<stop  offset="0.7095" style="stop-color:#F6DE77"/>
			<stop  offset="0.7649" style="stop-color:#EED16D"/>
			<stop  offset="0.8246" style="stop-color:#E0BC5D"/>
			<stop  offset="0.8874" style="stop-color:#CD9E48"/>
			<stop  offset="0.9519" style="stop-color:#B77A33"/>
			<stop  offset="1" style="stop-color:#A65C25"/>
		</linearGradient>
		<path style="fill:url(#SVGID_00000003804834586680347200000014607465727720677297_);" d="M41.8,44.8l0.8,1.1
			c0.1,0.1,0.3,0.3,0.5,0.6c0.2,0.3,0.5,0.5,0.8,0.5h-3.6c0.2,0,0.3-0.2,0.3-0.4c0-0.2-0.2-0.6-0.7-1.2l-0.4,0.7
			c-0.1,0.3-0.2,0.5-0.2,0.6c0,0.2,0.1,0.3,0.2,0.3h-2.1c0,0,0,0,0,0h0c0.2,0,0.3-0.1,0.6-0.4c0.1-0.1,0.2-0.3,0.4-0.6l0.8-1.6
			c-0.5-0.7-0.8-1.1-0.9-1.2c-0.5-0.6-0.9-0.9-1.1-0.9h3.3c-0.1,0-0.1,0.1-0.1,0.2c0,0.2,0.2,0.6,0.7,1.2c0.3-0.6,0.5-1,0.5-1.2
			c0-0.1-0.1-0.2-0.2-0.3h2.1c-0.4,0.1-0.7,0.5-1.1,1.2L41.8,44.8z M37.4,47.1L37.4,47.1C37.4,47.1,37.4,47.1,37.4,47.1z"/>
		<g>
			
				<linearGradient id="SVGID_00000110459499360742320210000006078145080867952564_" gradientUnits="userSpaceOnUse" x1="14.8886" y1="26.7852" x2="37.6862" y2="65.2993">
				<stop  offset="0" style="stop-color:#C0A44C"/>
				<stop  offset="0.4022" style="stop-color:#A05722"/>
				<stop  offset="0.6625" style="stop-color:#F9E37B"/>
				<stop  offset="0.7095" style="stop-color:#F6DE77"/>
				<stop  offset="0.7649" style="stop-color:#EED16D"/>
				<stop  offset="0.8246" style="stop-color:#E0BC5D"/>
				<stop  offset="0.8874" style="stop-color:#CD9E48"/>
				<stop  offset="0.9519" style="stop-color:#B77A33"/>
				<stop  offset="1" style="stop-color:#A65C25"/>
			</linearGradient>
			<path style="fill:url(#SVGID_00000110459499360742320210000006078145080867952564_);" d="M33.1,53.1c-0.2-0.2-0.5-0.4-0.8-0.5
				c-0.1-0.1-0.3-0.1-0.4-0.1l1.7-2.1l-0.4-0.6h-4.8L28.3,50c0,0.1,0,0.2,0,0.3v0.3c0,0.1,0,0.2,0,0.3l0.1,0.4h2.3l-1.6,2.1l0.5,0.7
				l0.3-0.1c0.1,0,0.3,0,0.4-0.1c0.1,0,0.3,0,0.4,0c0.4,0,0.7,0.1,0.9,0.2c0.1,0.1,0.2,0.2,0.2,0.5c0,0.2,0,0.4-0.1,0.5
				c-0.1,0.1-0.2,0.2-0.3,0.3c-0.1,0.1-0.3,0.2-0.5,0.2c-0.2,0-0.5,0.1-0.7,0.1c-0.3,0-0.5,0-0.8-0.1c-0.2,0-0.4-0.1-0.6-0.2
				l-0.4-0.2l-0.2,0.3c-0.2,0.2-0.3,0.5-0.4,0.7l-0.2,0.4l0.4,0.2c0.1,0.1,0.3,0.1,0.5,0.2c0.2,0,0.3,0.1,0.5,0.1
				c0.2,0,0.4,0.1,0.5,0.1c0.2,0,0.3,0,0.5,0c0.4,0,0.8,0,1.2-0.1c0.4-0.1,0.8-0.3,1.1-0.5c0.3-0.2,0.6-0.5,0.8-0.9
				c0.2-0.4,0.3-0.8,0.3-1.3c0-0.2,0-0.5-0.1-0.8C33.4,53.5,33.3,53.3,33.1,53.1z"/>
			
				<linearGradient id="SVGID_00000077293048265911633130000007633837859016935595_" gradientUnits="userSpaceOnUse" x1="20.2002" y1="23.6411" x2="42.9978" y2="62.1552">
				<stop  offset="0" style="stop-color:#C0A44C"/>
				<stop  offset="0.4022" style="stop-color:#A05722"/>
				<stop  offset="0.6625" style="stop-color:#F9E37B"/>
				<stop  offset="0.7095" style="stop-color:#F6DE77"/>
				<stop  offset="0.7649" style="stop-color:#EED16D"/>
				<stop  offset="0.8246" style="stop-color:#E0BC5D"/>
				<stop  offset="0.8874" style="stop-color:#CD9E48"/>
				<stop  offset="0.9519" style="stop-color:#B77A33"/>
				<stop  offset="1" style="stop-color:#A65C25"/>
			</linearGradient>
			<path style="fill:url(#SVGID_00000077293048265911633130000007633837859016935595_);" d="M40.4,54v-4.2l-2-0.2l-3.9,4.9l0.2,1.4
				h3.6v1.6h2.2v-1.6h1.3V54H40.4z M37.2,54l0.9-1.2V54H37.2z"/>
		</g>
		
			<linearGradient id="SVGID_00000142854852114714755070000005520912837444747948_" gradientUnits="userSpaceOnUse" x1="17.001" y1="25.5348" x2="39.7986" y2="64.049">
			<stop  offset="0" style="stop-color:#C0A44C"/>
			<stop  offset="0.4022" style="stop-color:#A05722"/>
			<stop  offset="0.6625" style="stop-color:#F9E37B"/>
			<stop  offset="0.7095" style="stop-color:#F6DE77"/>
			<stop  offset="0.7649" style="stop-color:#EED16D"/>
			<stop  offset="0.8246" style="stop-color:#E0BC5D"/>
			<stop  offset="0.8874" style="stop-color:#CD9E48"/>
			<stop  offset="0.9519" style="stop-color:#B77A33"/>
			<stop  offset="1" style="stop-color:#A65C25"/>
		</linearGradient>
		<path style="fill:url(#SVGID_00000142854852114714755070000005520912837444747948_);" d="M27.4,31.9c0,0.5,0.1,0.9,0.2,1.3
			l1.5,4.3c0.5,1.4,1.1,2.3,1.8,2.6h-5.7c0.3-0.1,0.4-0.4,0.4-1c0-0.3-0.1-0.6-0.2-1h-3.2c-0.1,0.4-0.2,0.7-0.2,1
			c0,0.5,0.1,0.9,0.4,1h-4.1c0.7-0.3,1.3-1.2,1.8-2.7l1.5-4.2c0.1-0.4,0.2-0.9,0.2-1.4c0-0.4-0.1-0.7-0.2-0.9h6
			C27.5,31.2,27.4,31.5,27.4,31.9z M22.8,36.3h2l-1-2.9L22.8,36.3z"/>
		
			<linearGradient id="SVGID_00000169544316296699675910000015541293311006963374_" gradientUnits="userSpaceOnUse" x1="23.607" y1="21.6246" x2="46.4046" y2="60.1387">
			<stop  offset="0" style="stop-color:#C0A44C"/>
			<stop  offset="0.4022" style="stop-color:#A05722"/>
			<stop  offset="0.6625" style="stop-color:#F9E37B"/>
			<stop  offset="0.7095" style="stop-color:#F6DE77"/>
			<stop  offset="0.7649" style="stop-color:#EED16D"/>
			<stop  offset="0.8246" style="stop-color:#E0BC5D"/>
			<stop  offset="0.8874" style="stop-color:#CD9E48"/>
			<stop  offset="0.9519" style="stop-color:#B77A33"/>
			<stop  offset="1" style="stop-color:#A65C25"/>
		</linearGradient>
		<path style="fill:url(#SVGID_00000169544316296699675910000015541293311006963374_);" d="M34.6,38.8c0.3,0,0.6-0.1,0.9-0.2
			c0.3-0.2,0.4-0.4,0.5-0.7c0,0,0,0.1-0.1,0.3c0,0-0.1,0.2-0.2,0.7L35.5,40h-3.8c0.1-0.1,0.2-0.3,0.2-0.6c0-0.2,0.1-0.4,0.1-0.7
			v-2.1c0-0.2,0-0.4-0.1-0.6c-0.1-0.3-0.1-0.5-0.2-0.6h2.5c-0.3,0.3-0.4,0.7-0.4,1.3v2.1H34.6z"/>
		
			<linearGradient id="SVGID_00000024711209477734919640000007264082702647059647_" gradientUnits="userSpaceOnUse" x1="27.9336" y1="19.0635" x2="50.7312" y2="57.5777">
			<stop  offset="0" style="stop-color:#C0A44C"/>
			<stop  offset="0.4022" style="stop-color:#A05722"/>
			<stop  offset="0.6625" style="stop-color:#F9E37B"/>
			<stop  offset="0.7095" style="stop-color:#F6DE77"/>
			<stop  offset="0.7649" style="stop-color:#EED16D"/>
			<stop  offset="0.8246" style="stop-color:#E0BC5D"/>
			<stop  offset="0.8874" style="stop-color:#CD9E48"/>
			<stop  offset="0.9519" style="stop-color:#B77A33"/>
			<stop  offset="1" style="stop-color:#A65C25"/>
		</linearGradient>
		<path style="fill:url(#SVGID_00000024711209477734919640000007264082702647059647_);" d="M40.6,35.5l0.5,2.1
			c-0.2-0.3-0.5-0.5-0.7-0.7c-0.2-0.1-0.4-0.2-0.6-0.2h-0.3v2.1c0,0.2,0,0.4,0.1,0.7c0.1,0.3,0.1,0.5,0.2,0.6h-2.5
			c0.2-0.2,0.3-0.6,0.3-1.3v-2.1h-0.4c-0.2,0-0.3,0.1-0.6,0.2c-0.3,0.2-0.5,0.4-0.7,0.7l0.5-2.1H40.6z"/>
		
			<linearGradient id="SVGID_00000039111122728408308780000002711045818744536208_" gradientUnits="userSpaceOnUse" x1="30.4528" y1="17.5723" x2="53.2504" y2="56.0865">
			<stop  offset="0" style="stop-color:#C0A44C"/>
			<stop  offset="0.4022" style="stop-color:#A05722"/>
			<stop  offset="0.6625" style="stop-color:#F9E37B"/>
			<stop  offset="0.7095" style="stop-color:#F6DE77"/>
			<stop  offset="0.7649" style="stop-color:#EED16D"/>
			<stop  offset="0.8246" style="stop-color:#E0BC5D"/>
			<stop  offset="0.8874" style="stop-color:#CD9E48"/>
			<stop  offset="0.9519" style="stop-color:#B77A33"/>
			<stop  offset="1" style="stop-color:#A65C25"/>
		</linearGradient>
		<path style="fill:url(#SVGID_00000039111122728408308780000002711045818744536208_);" d="M43.6,35.5c-0.2,0.2-0.3,0.6-0.3,1.2v2
			c0,0.6,0.1,1.1,0.3,1.2h-2.5c0.1-0.1,0.2-0.3,0.2-0.6c0-0.2,0.1-0.5,0.1-0.7v-2c0-0.2,0-0.4-0.1-0.7c-0.1-0.3-0.1-0.5-0.2-0.6
			H43.6z"/>
		
			<linearGradient id="SVGID_00000101105517560210779030000001761917780870636978_" gradientUnits="userSpaceOnUse" x1="34.2063" y1="15.3505" x2="57.0039" y2="53.8647">
			<stop  offset="0" style="stop-color:#C0A44C"/>
			<stop  offset="0.4022" style="stop-color:#A05722"/>
			<stop  offset="0.6625" style="stop-color:#F9E37B"/>
			<stop  offset="0.7095" style="stop-color:#F6DE77"/>
			<stop  offset="0.7649" style="stop-color:#EED16D"/>
			<stop  offset="0.8246" style="stop-color:#E0BC5D"/>
			<stop  offset="0.8874" style="stop-color:#CD9E48"/>
			<stop  offset="0.9519" style="stop-color:#B77A33"/>
			<stop  offset="1" style="stop-color:#A65C25"/>
		</linearGradient>
		<path style="fill:url(#SVGID_00000101105517560210779030000001761917780870636978_);" d="M50.4,40c-0.2,0-0.4,0-0.6,0
			c-0.4,0-0.7-0.1-1-0.2c-0.5-0.2-1.4-0.9-2.7-2v0.8c0,0.7,0.1,1.1,0.3,1.3h-1.9c0.2-0.2,0.3-0.6,0.3-1.3v-1.9
			c0-0.7-0.1-1.1-0.3-1.3h2c1,1.2,1.8,2,2.3,2.3v-1c0-0.7-0.1-1.1-0.3-1.3h1.9c-0.2,0.2-0.3,0.6-0.3,1.3v1.7c0,0.1,0,0.3,0,0.6
			C50,39.7,50.2,40,50.4,40z"/>
	</g>
	<path class="st1" d="M41.1,58.9c0,0-1.3,1.1-3,0.5c0,0,0,0-0.1,0c0,0,0,0,0,0c-0.1,0-0.1,0-0.2-0.1h0c-0.2-0.1-0.6-0.2-1.1-0.2
		c0,0-0.1,0-0.2,0h0c0,0,0,0-0.1,0c-0.1,0-0.1,0-0.2,0h0h0c0,0,0,0,0,0c-0.1,0-0.2,0-0.3,0c0,0-0.1,0-0.1,0c0,0,0,0-0.1,0
		c-0.2,0-0.4,0.1-0.6,0.1c0,0-0.1,0-0.1,0c0,0-0.1,0-0.1,0c0,0,0,0,0,0c0,0-0.1,0-0.1,0c0,0,0,0,0,0c0,0-0.1,0-0.1,0
		c-0.6,0.2-1.3,0.3-1.9,0.1c-0.1,0-0.3-0.1-0.5-0.2l0,0h0c-0.6-0.2-1.7-0.4-3,0.1c-1.7,0.6-3-0.4-3-0.5l-0.1,0.2
		c0,0,1.4,1.2,3.2,0.5c1.2-0.5,2.2-0.3,2.8-0.1c0.1,0.1,0.3,0.1,0.4,0.2l0.2,0.1l0,0c0.3,0.1,0.6,0.1,0.8,0.1c0.3,0,0.6,0,0.9-0.1
		c0.1,0,0.2,0,0.2-0.1c0,0,0,0,0.1,0c0,0,0.1,0,0.1,0c0,0,0,0,0,0c0,0,0,0,0,0c0.3-0.1,0.7-0.2,1-0.2c0,0,0.1,0,0.1,0
		c0,0,0.1,0,0.1,0c0.1,0,0.1,0,0.2,0c0.4,0,0.8,0.1,1.3,0.2h0c0,0,0.1,0,0.1,0c0,0,0,0,0,0c0,0,0,0,0.1,0c0.1,0,0.2,0.1,0.2,0.1
		c0.3,0.1,0.6,0.1,0.9,0.1c1.2,0,2-0.7,2-0.7L41.1,58.9z"/>
	<path class="st1" d="M39.6,60.3c0,0-1,0.9-2.4,0.4c0,0,0,0,0,0c0,0,0,0,0,0c0,0-0.1,0-0.1,0h0c-0.2-0.1-0.5-0.2-0.9-0.2
		c0,0-0.1,0-0.1,0h0c0,0,0,0-0.1,0c-0.1,0-0.1,0-0.2,0h0h0c0,0,0,0,0,0c-0.1,0-0.2,0-0.2,0c0,0-0.1,0-0.1,0c0,0,0,0,0,0
		c-0.2,0-0.3,0.1-0.5,0.1c0,0-0.1,0-0.1,0c0,0,0,0-0.1,0c0,0,0,0,0,0c0,0-0.1,0-0.1,0c0,0,0,0,0,0c0,0,0,0-0.1,0
		c-0.5,0.2-1,0.2-1.5,0.1c-0.1,0-0.2-0.1-0.4-0.2l0,0h0c-0.5-0.2-1.4-0.3-2.4,0.1c-1.4,0.5-2.4-0.4-2.4-0.4l-0.1,0.1
		c0,0,1.1,0.9,2.6,0.4c1-0.4,1.8-0.2,2.3-0.1c0.1,0.1,0.2,0.1,0.3,0.1l0.1,0l0,0c0.2,0.1,0.5,0.1,0.7,0.1c0.2,0,0.5,0,0.7-0.1
		c0.1,0,0.1,0,0.2-0.1c0,0,0,0,0.1,0c0,0,0.1,0,0.1,0c0,0,0,0,0,0c0,0,0,0,0,0c0.3-0.1,0.5-0.1,0.8-0.2c0,0,0.1,0,0.1,0
		c0,0,0,0,0.1,0c0.1,0,0.1,0,0.2,0c0.3,0,0.6,0.1,1,0.2h0c0,0,0.1,0,0.1,0c0,0,0,0,0,0c0,0,0,0,0.1,0c0.1,0,0.1,0,0.2,0.1
		c0.3,0.1,0.5,0.1,0.7,0.1c1,0,1.6-0.6,1.6-0.6L39.6,60.3z"/>
	<path class="st1" d="M37.2,61.5c0,0-0.6,0.5-1.4,0.2c0,0,0,0,0,0c0,0,0,0,0,0c0,0,0,0-0.1,0h0c-0.1,0-0.3-0.1-0.5-0.1
		c0,0,0,0-0.1,0h0c0,0,0,0,0,0c0,0-0.1,0-0.1,0h0h0c0,0,0,0,0,0c0,0-0.1,0-0.1,0c0,0,0,0,0,0c0,0,0,0,0,0c-0.1,0-0.2,0-0.3,0.1
		c0,0,0,0-0.1,0c0,0,0,0,0,0c0,0,0,0,0,0c0,0,0,0,0,0c0,0,0,0,0,0c0,0,0,0,0,0c-0.3,0.1-0.6,0.1-0.9,0c0,0-0.1-0.1-0.2-0.1l0,0h0
		c-0.3-0.1-0.8-0.2-1.4,0.1c-0.8,0.3-1.4-0.2-1.4-0.2l-0.1,0.1c0,0,0.6,0.5,1.5,0.2c0.6-0.2,1-0.1,1.3-0.1c0.1,0,0.1,0.1,0.2,0.1
		l0.1,0l0,0c0.1,0,0.3,0.1,0.4,0.1c0.1,0,0.3,0,0.4-0.1c0,0,0.1,0,0.1,0c0,0,0,0,0,0c0,0,0,0,0.1,0c0,0,0,0,0,0c0,0,0,0,0,0
		c0.2,0,0.3-0.1,0.5-0.1c0,0,0,0,0.1,0c0,0,0,0,0,0c0,0,0.1,0,0.1,0c0.2,0,0.4,0,0.6,0.1h0c0,0,0,0,0.1,0c0,0,0,0,0,0c0,0,0,0,0,0
		c0,0,0.1,0,0.1,0c0.1,0,0.3,0.1,0.4,0.1C36.8,61.9,37.2,61.6,37.2,61.5L37.2,61.5z"/>
</g>
</svg>
